# xmcd
#
# Track frame offsets:
#   150
#   22711
#   36749
#   55713
#   73914
#   87788
#   96885
#   114930
#   133756
#
# Disc length: 2197 seconds
#
# Revision: 0
# Processed by: cddbd v1.5PL3 Copyright (c) Steve Scherf et al.
# Submitted via: Click'N Design 3D 4.8
#
DISCID=73089309
DTITLE=General - Pink Floyd
DYEAR=2004
DGENRE=Alternative
TTITLE0=My band
TTITLE1=Complicated
TTITLE2=Little things
TTITLE3=Hold on
TTITLE4=Boys and girls
TTITLE5=Change
TTITLE6=I heard you
TTITLE7=I belong to you
TTITLE8=Comfortably numb
EXTD=
EXTT0=
EXTT1=
EXTT2=
EXTT3=
EXTT4=
EXTT5=
EXTT6=
EXTT7=
EXTT8=
PLAYORDER=
